<svg xmlns="http://www.w3.org/2000/svg" width="20" height="20" viewBox="0 0 20 20" fill="none">
  <path fill-rule="evenodd" clip-rule="evenodd" d="M12.1438 6.25391C12.1438 4.18284 10.5448 2.50391 8.5724 2.50391C6.59997 2.50391 5.00097 4.18284 5.00097 6.25391L5.00098 12.2539C5.00098 15.1534 7.23955 17.5039 10.001 17.5039C12.7624 17.5039 15.001 15.1534 15.001 12.2539L15.001 7.75391C15.001 7.3397 14.6812 7.00391 14.2867 7.00391C13.8922 7.00391 13.5724 7.3397 13.5724 7.75391L13.5724 12.2539C13.5724 14.325 11.9734 16.0039 10.001 16.0039C8.02855 16.0039 6.42955 14.325 6.42955 12.2539L6.42955 6.25391C6.42955 5.01127 7.3889 4.00391 8.5724 4.00391C9.7559 4.00391 10.7153 5.01127 10.7153 6.25391L10.7153 12.2539C10.7153 12.6681 10.3955 13.0039 10.001 13.0039C9.60648 13.0039 9.28669 12.6681 9.28669 12.2539L9.28669 7.75391C9.28669 7.3397 8.9669 7.00391 8.5724 7.00391C8.1779 7.00391 7.85812 7.3397 7.85812 7.75391L7.85812 12.2539C7.85812 13.4966 8.81748 14.5039 10.001 14.5039C11.1845 14.5039 12.1438 13.4966 12.1438 12.2539L12.1438 6.25391Z" fill="#E6E6E6"/>
</svg>