<svg width="20" height="20" viewBox="0 0 20 20" fill="none" xmlns="http://www.w3.org/2000/svg">
<path fill-rule="evenodd" clip-rule="evenodd" d="M4.26008 4.26399C4.61208 3.912 5.18276 3.912 5.53475 4.26399L9.99609 8.72533L14.4574 4.26399C14.8094 3.912 15.3801 3.912 15.7321 4.26399C16.0841 4.61598 16.0841 5.18667 15.7321 5.53865L11.2707 9.99998L15.7321 14.4613C16.0841 14.8133 16.0841 15.384 15.7321 15.736C15.3801 16.088 14.8094 16.088 14.4574 15.736L9.99609 11.2746L5.53475 15.736C5.18276 16.088 4.61208 16.088 4.26008 15.736C3.9081 15.384 3.9081 14.8133 4.26008 14.4613L8.72143 9.99998L4.26008 5.53865C3.9081 5.18667 3.9081 4.61598 4.26008 4.26399Z" fill="#737380"/>
</svg>
