<svg width="20" height="20" viewBox="0 0 20 20" fill="none" xmlns="http://www.w3.org/2000/svg">
<path d="M14.5 2C15.8807 2 17 3.11929 17 4.5C17 5.61933 16.2642 6.56613 15.25 6.88477V8C15.25 9.51878 14.0188 10.75 12.5 10.75H10.75V13.1143C11.7643 13.4328 12.5 14.3806 12.5 15.5C12.5 16.8807 11.3807 18 10 18C8.61929 18 7.5 16.8807 7.5 15.5C7.5 14.3806 8.23569 13.4328 9.25 13.1143V10.75H7.5C5.98122 10.75 4.75 9.51878 4.75 8V6.88477C3.73584 6.56613 3 5.61933 3 4.5C3 3.11929 4.11929 2 5.5 2C6.88071 2 8 3.11929 8 4.5C8 5.61933 7.26416 6.56613 6.25 6.88477V8C6.25 8.69036 6.80964 9.25 7.5 9.25H12.5C13.1904 9.25 13.75 8.69036 13.75 8V6.88477C12.7358 6.56613 12 5.61933 12 4.5C12 3.11929 13.1193 2 14.5 2ZM10 14.5C9.44772 14.5 9 14.9477 9 15.5C9 16.0523 9.44772 16.5 10 16.5C10.5523 16.5 11 16.0523 11 15.5C11 14.9477 10.5523 14.5 10 14.5ZM5.5 3.5C4.94772 3.5 4.5 3.94772 4.5 4.5C4.5 5.05228 4.94772 5.5 5.5 5.5C6.05228 5.5 6.5 5.05228 6.5 4.5C6.5 3.94772 6.05228 3.5 5.5 3.5ZM14.5 3.5C13.9477 3.5 13.5 3.94772 13.5 4.5C13.5 5.05228 13.9477 5.5 14.5 5.5C15.0523 5.5 15.5 5.05228 15.5 4.5C15.5 3.94772 15.0523 3.5 14.5 3.5Z" fill="white"/>
</svg>
