<svg width="22" height="25" viewBox="0 0 22 25" fill="none" xmlns="http://www.w3.org/2000/svg">
<path d="M10 1C5.03009 1 1 5.13137 1 10.2278C1 14.305 3.57878 17.764 7.15479 18.9841C7.60457 19.0695 7.76974 18.784 7.76974 18.5402C7.76974 18.3202 7.76134 17.5932 7.75753 16.8222C5.25364 17.3804 4.7253 15.7334 4.7253 15.7334C4.31591 14.6668 3.72602 14.3832 3.72602 14.3832C2.90949 13.8105 3.78757 13.8222 3.78757 13.8222C4.69135 13.8873 5.16724 14.7732 5.16724 14.7732C5.96994 16.1839 7.27267 15.776 7.78625 15.5403C7.867 14.9438 8.10029 14.5368 8.35765 14.3064C6.35866 14.073 4.25718 13.2817 4.25718 9.7459C4.25718 8.73848 4.60877 7.91524 5.18453 7.26903C5.09108 7.03657 4.78304 6.09805 5.27171 4.82697C5.27171 4.82697 6.02747 4.57895 7.74736 5.77288C8.46522 5.56836 9.23517 5.46588 10 5.4624C10.7649 5.46588 11.5354 5.56836 12.2547 5.77288C13.9725 4.57895 14.7272 4.82697 14.7272 4.82697C15.2171 6.09805 14.9089 7.03657 14.8155 7.26903C15.3925 7.91524 15.7417 8.73841 15.7417 9.7459C15.7417 13.2901 13.6363 14.0706 11.6322 14.299C11.955 14.5854 12.2426 15.147 12.2426 16.0078C12.2426 17.2425 12.2322 18.2363 12.2322 18.5402C12.2322 18.7858 12.3942 19.0735 12.8504 18.9829C16.4245 17.7613 19 14.3036 19 10.2278C19 5.13137 14.9705 1 10 1Z" fill="#E6E6E6"/>
<circle cx="15" cy="18" r="7" fill="#1F1F20"/>
<circle opacity="0.2" cx="14.9984" cy="17.9984" r="5.6" fill="#2EE572"/>
<circle cx="14.9984" cy="17.9984" r="1.75" stroke="#2EE572" stroke-width="0.7"/>
<circle cx="15.0031" cy="17.9992" r="2.8" fill="#2EE572"/>
</svg>
